<?xml version="1.0" encoding="UTF-8" standalone="no"?>
<!-- Created with Inkscape (http://www.inkscape.org/) -->

<svg
   width="56.873188mm"
   height="55.198696mm"
   viewBox="0 0 56.873188 55.198696"
   version="1.1"
   id="svg442"
   xmlns="http://www.w3.org/2000/svg"
   xmlns:svg="http://www.w3.org/2000/svg">
  <defs
     id="defs439" />
  <g
     id="layer1"
     transform="translate(-0.37682538,-0.32976078)">
    <path
       class="st0"
       d="M 57.176252,33.911998 52.28146,12.692418 c -0.264583,-1.11125 -1.005417,-2.03729 -2.037292,-2.54 L 30.453335,0.70679253 c -1.031875,-0.502709 -2.248958,-0.502709 -3.280833,0 L 7.4081274,10.152418 c -1.031875,0.50271 -1.772708,1.42875 -2.037291,2.54 l -4.89479202,21.21958 c -0.132292,0.52917 -0.132292,1.08479 0,1.64042 0.02646,0.15875 0.07937,0.3175 0.132292,0.47625 0.105833,0.26458 0.211666,0.52917 0.370416,0.76729 0.07937,0.10583 0.13229202,0.21167 0.21166702,0.29104 l 7.037917,8.73125 c 0.02646,-0.10583 0.02646,-0.23812 0.05292,-0.34396 0.132292,-0.89958 -0.15875,-1.69333 -0.449791,-2.51354 -0.502709,-1.37583 -1.190625,-2.69875 -1.402292,-4.18041 -0.211667,-1.69334 -0.15875,-3.38667 -0.132292,-5.08 0.02646,-0.9525 -0.238125,-1.79917 -0.529166,-2.6723 -0.370417,-1.16416 -0.899584,-2.27541 -1.058334,-3.4925 -0.07937,-0.60854 -0.105833,-1.21708 0.07937,-1.82562 0.132292,-0.37042 0.343959,-0.68792 0.740834,-0.68792 0.396875,0 0.661458,0.29104 0.767291,0.66146 0.211667,0.74083 0.370417,1.50813 0.529167,2.27542 0.238125,1.08479 0.582083,2.14312 1.031875,3.175 0.291042,0.66146 0.529167,0.68791 0.978958,0.10583 0.211667,-0.29104 0.3175,-0.635 0.3175,-1.00542 0.105834,-2.06375 0.211667,-4.10104 0.3175,-6.16479 0.05292,-0.66146 0.185209,-1.32291 0.423334,-1.95791 0.1587496,-0.47625 0.5027076,-0.87313 1.0583326,-0.79375 0.555625,0.0794 0.582083,0.60854 0.555625,1.05833 -0.15875,2.06375 -0.211667,4.10104 -0.132292,6.16479 0,0.44979 -0.02646,0.87313 0.3175,1.45521 0.02646,-2.75167 0.820209,-5.18583 1.137709,-7.72583 0.02646,-0.34396 0.132291,-0.66146 0.264583,-0.9525 0.238125,-0.42334 0.661458,-0.635 1.11125,-0.55563 0.502708,0.10583 0.502708,0.55563 0.47625,0.9525 -0.15875,1.40229 -0.396875,2.80458 -0.529167,4.20688 -0.15875,1.48166 -0.211667,2.98979 -0.343958,4.60375 0.423333,-0.3175 0.423333,-0.68792 0.502708,-1.00542 0.370417,-1.32292 0.767292,-2.67229 0.899583,-4.04813 0.05292,-0.37041 0.132292,-0.71437 0.291042,-1.03187 0.185208,-0.50271 0.582083,-0.82021 1.084792,-0.74083 0.529166,0.0794 0.449791,0.635 0.47625,1.03187 0.05292,1.79917 -0.343959,3.54542 -0.582084,5.29167 -0.3175,2.09021 -0.343958,4.20687 -0.07937,6.32354 0.02646,0.23812 0.105834,0.50271 0.185209,0.71437 0.3175,0.87313 0.714375,1.00542 1.508125,0.52917 0.211666,-0.13229 0.423333,-0.26458 0.608541,-0.44979 1.217084,-1.16417 2.619375,-1.00542 4.048125,-0.50271 0.3175,0.10583 0.582084,0.3175 0.767292,0.60854 0.370417,0.635 0.211667,1.11125 -0.529167,1.05834 -2.090208,-0.18521 -3.280833,1.03187 -4.418541,2.46062 -0.714375,0.89958 -1.772709,1.24354 -2.778125,1.5875 -0.873125,0.29104 -1.137709,0.76729 -1.11125,1.66688 0.05292,3.25437 0.05292,6.50875 0.05292,9.76312 0,0.0265 0,0.0794 0,0.10583 l 0.15875,0.21167 c 0.05292,0.0794 0.132292,0.13229 0.185209,0.21167 0.211666,0.23812 0.449791,0.42333 0.714375,0.60854 0.343958,0.21167 0.687916,0.37042 1.084791,0.47625 0.3175,0.0794 0.635,0.13229 0.9525,0.13229 h 0.211667 l 8.493125,-0.10583 c 0.02646,-1.61396 0.05292,-3.22792 0.07937,-4.81542 0.02646,-2.40771 0.767292,-4.70958 1.031875,-7.06437 0.370417,-3.175 0.370417,-6.37646 -0.02646,-9.525 -0.105834,-1.00542 -0.529167,-1.69334 -1.561042,-2.09021 -1.084792,-0.39688 -1.640417,-1.50813 -2.407708,-2.32834 -2.301875,-2.43416 -3.995209,-5.37104 -6.482292,-7.67291 -0.264583,-0.23813 -0.370417,-0.55563 -0.211667,-0.87313 0.211667,-0.44979 0.687917,-0.74083 1.190625,-0.68791 1.031875,0.0529 1.852084,0.52916 2.54,1.27 0.79375,0.8202 1.534584,1.64041 2.460625,2.32833 0.978959,0.74083 1.296459,0.635 1.799167,-0.44979 0.926042,-1.98438 0.978958,-4.02167 0.423333,-6.11188 -0.555625,-2.16958 -1.349375,-4.31271 -1.243541,-6.61458 0.05292,-1.3493805 0.370416,-2.1431305 1.058333,-2.1166705 1.164167,0.0529 1.031875,1.11125 1.164167,1.8256305 0.423333,2.30187 0.846666,4.63021 1.719791,6.82625 0.105834,0.29104 0.132292,0.84666 0.608542,0.71437 0.370417,-0.10583 0.211667,-0.55562 0.185208,-0.84666 -0.185208,-2.72521 -0.47625,-5.45042 0.02646,-8.1756305 0.07938,-0.47625 0.132291,-0.9525 0.449791,-1.34937 0.291042,-0.34396 0.635,-0.58209 1.084792,-0.4498 0.423333,0.1323 0.608542,0.47625 0.608542,0.89959 0.02646,1.03187 0.07937,2.0637505 0,3.0956205 -0.132292,1.98438 0.238125,3.91584 0.423333,5.87375 0.02646,0.26459 0,0.68792 0.370417,0.68792 0.291041,0 0.449791,-0.37042 0.502708,-0.635 0.47625,-2.06375 1.27,-4.07458 1.534583,-6.19125 0.07937,-0.52917 0.132292,-1.0847905 0.396875,-1.5875005 0.238125,-0.42333 0.529167,-0.60854 1.005417,-0.52917 0.529167,0.0794 0.79375,0.37042 0.820208,0.89959 0.02646,0.26458 0.02646,0.5027005 -0.02646,0.7672905 -0.47625,2.59291 -0.714375,5.23875 -1.508125,7.77875 -0.02646,0.13229 -0.05292,0.23812 -0.07937,0.37041 -0.05292,0.29105 -0.15875,0.66146 0.132292,0.79375 0.343958,0.18521 0.582083,-0.1852 0.767291,-0.42333 1.058334,-1.27 2.06375,-2.56646 2.751667,-4.07458 0.105833,-0.26459 0.264583,-0.50271 0.47625,-0.71438 0.291042,-0.3175 0.661458,-0.52916 1.137708,-0.34396 0.529167,0.23813 0.343959,0.68792 0.291042,1.0848 -0.07938,0.68791 -0.343958,1.32291 -0.740833,1.87854 -2.2225,3.01625 -2.963334,6.45583 -2.936875,10.10708 0,1.08479 -0.264584,2.16958 -0.740834,3.14854 -0.449791,0.9525 -0.47625,1.95792 -0.423333,3.01625 0.185208,3.43959 0.899583,6.82625 1.296458,10.23938 0.47625,4.04812 0.661459,8.12271 0.343959,12.17083 h 2.936875 c 0.132291,0 0.264583,0 0.396874,-0.0265 0.185209,-0.0265 0.370417,-0.0529 0.555625,-0.10583 0.132292,-0.0265 0.264584,-0.0794 0.396875,-0.13229 0.105834,-0.0265 0.185209,-0.0794 0.291042,-0.13229 0.132292,-0.0794 0.291042,-0.1323 0.423333,-0.23813 0.343959,-0.21167 0.661459,-0.47625 0.899584,-0.79375 l 0.15875,-0.39687 c 0.343958,-4.20688 -0.07937,-8.3873 -0.291042,-12.56771 -0.105833,-2.2225 -2.169583,-4.84188 -4.947708,-4.89479 -0.502708,0 -1.190625,0.15875 -1.217083,-0.68792 0,-0.68792 0.449791,-1.11125 1.137708,-1.21708 0.873125,-0.1323 1.74625,-0.0529 2.566458,0.26458 1.693333,0.60854 2.672292,-0.26458 2.196042,-2.06375 -0.502709,-1.95792 -0.820209,-3.94229 -0.978959,-5.95313 -0.05292,-0.52916 -0.132291,-1.05833 0.02646,-1.5875 0.15875,-0.5027 0.396875,-0.9525 1.005416,-0.92604 0.661459,0.0265 0.608542,0.60854 0.687917,1.05834 0.291042,1.69333 0.661458,3.33375 1.508125,5.02708 0.396875,-0.66146 0.423333,-1.27 0.47625,-1.79917 0.07937,-1.27 0.502708,-2.48708 0.635,-3.75708 0.02646,-0.23813 0.105833,-0.44979 0.238125,-0.66146 0.211667,-0.37042 0.502708,-0.66146 0.978958,-0.55562 0.529167,0.10583 0.687917,0.52916 0.661459,1.00541 -0.07937,1.19063 -0.211667,2.40771 -0.3175,3.59834 -0.05292,0.71437 -0.105834,1.40229 0.02646,2.16958 0.47625,-1.34938 0.9525,-2.69875 1.402292,-4.04813 0.238125,-0.68791 0.291041,-1.66687 1.322916,-1.37583 0.926042,0.29104 0.423334,1.16417 0.291042,1.74625 -0.3175,1.61396 -0.740833,3.20146 -1.11125,4.81542 -0.07937,0.37041 -0.264583,0.84666 0.211667,1.08479 0.423333,0.21167 0.661458,-0.23813 0.899583,-0.50271 0.9525,-1.05833 1.852083,-2.14312 2.804583,-3.175 0.264584,-0.29104 0.555625,-0.82021 1.084792,-0.47625 0.449792,0.3175 0.343958,0.84667 0.132292,1.29646 -0.370417,0.82021 -0.873125,1.5875 -1.455209,2.27542 -0.899583,1.03187 -1.561041,2.16958 -1.772708,3.54541 -0.132292,0.89959 -0.370417,1.77271 -0.740833,2.59292 -1.084792,2.27542 -1.137709,4.63021 -0.767292,7.06437 0.02646,0.15875 0.05292,0.3175 0.07937,0.47625 l 6.746875,-8.38729 c 0.264583,-0.3175 0.449792,-0.68791 0.582083,-1.05833 0.05292,-0.15875 0.105834,-0.3175 0.132292,-0.47625 0.15875,-0.55563 0.15875,-1.11125 0.05292,-1.64042 z"
       id="path10"
       style="fill:#0086ff;stroke-width:0.264583" />
  </g>
</svg>
